{
  "accessors": [
    {
      "bufferView": 2,
      "componentType": 5126,
      "count": 65532,
      "max": [
        2.5686802864074707,
        5.579124450683594,
        1.1013545989990234
      ],
      "min": [
        -2.555530548095703,
        1.651379942893982,
        -4.463042259216309
      ],
      "type": "VEC3"
    },
    {
      "bufferView": 2,
      "byteOffset": 786384,
      "componentType": 5126,
      "count": 65532,
      "max": [
        0.9999265670776367,
        0.9999997019767761,
        0.9999974966049194
      ],
      "min": [
        -0.997341513633728,
        -0.80470210313797,
        -0.8847489356994629
      ],
      "type": "VEC3"
    },
    {
      "bufferView": 1,
      "componentType": 5126,
      "count": 65532,
      "max": [
        4.121107578277588,
        4.125999450683594
      ],
      "min": [
        -3.126528024673462,
        -3.1263890266418457
      ],
      "type": "VEC2"
    },
    {
      "bufferView": 0,
      "componentType": 5125,
      "count": 354117,
      "type": "SCALAR"
    },
    {
      "bufferView": 2,
      "byteOffset": 1572768,
      "componentType": 5126,
      "count": 65532,
      "max": [
        2.527717113494873,
        5.574161052703857,
        1.0961503982543945
      ],
      "min": [
        -2.5687270164489746,
        1.5017218589782715,
        -4.622627258300781
      ],
      "type": "VEC3"
    },
    {
      "bufferView": 2,
      "byteOffset": 2359152,
      "componentType": 5126,
      "count": 65532,
      "max": [
        0.9815446734428406,
        0.9999307990074158,
        0.9999024868011475
      ],
      "min": [
        -0.9997677803039551,
        -0.999999463558197,
        -0.9999974370002747
      ],
      "type": "VEC3"
    },
    {
      "bufferView": 1,
      "byteOffset": 524256,
      "componentType": 5126,
      "count": 65532,
      "max": [
        4.126621246337891,
        4.126515865325928
      ],
      "min": [
        -3.1266345977783203,
        -3.126552104949951
      ],
      "type": "VEC2"
    },
    {
      "bufferView": 0,
      "byteOffset": 1416468,
      "componentType": 5125,
      "count": 318567,
      "type": "SCALAR"
    },
    {
      "bufferView": 2,
      "byteOffset": 3145536,
      "componentType": 5126,
      "count": 2546,
      "max": [
        2.462932586669922,
        5.132989406585693,
        0.6471407413482666
      ],
      "min": [
        -2.3678760528564453,
        1.8592197895050049,
        -4.46832275390625
      ],
      "type": "VEC3"
    },
    {
      "bufferView": 2,
      "byteOffset": 3176088,
      "componentType": 5126,
      "count": 2546,
      "max": [
        0.8480697870254517,
        0.24986141920089722,
        0.14745384454727173
      ],
      "min": [
        -0.8558399081230164,
        -0.8166927695274353,
        -0.8980903625488281
      ],
      "type": "VEC3"
    },
    {
      "bufferView": 1,
      "byteOffset": 1048512,
      "componentType": 5126,
      "count": 2546,
      "max": [
        4.085075378417969,
        3.4692063331604004
      ],
      "min": [
        -2.588738203048706,
        -2.944223165512085
      ],
      "type": "VEC2"
    },
    {
      "bufferView": 0,
      "byteOffset": 2690736,
      "componentType": 5125,
      "count": 11220,
      "type": "SCALAR"
    },
    {
      "bufferView": 2,
      "byteOffset": 3206640,
      "componentType": 5126,
      "count": 838,
      "max": [
        2.023723602294922,
        1.8428919315338135,
        0.8394408226013184
      ],
      "min": [
        -2.023723840713501,
        -6.449222564697266e-05,
        -2.751377582550049
      ],
      "type": "VEC3"
    },
    {
      "bufferView": 2,
      "byteOffset": 3216696,
      "componentType": 5126,
      "count": 838,
      "max": [
        0.9318788051605225,
        0.864343523979187,
        0.9565007090568542
      ],
      "min": [
        -0.9318795204162598,
        -0.9729633331298828,
        -0.9484732151031494
      ],
      "type": "VEC3"
    },
    {
      "bufferView": 1,
      "byteOffset": 1068880,
      "componentType": 5126,
      "count": 838,
      "max": [
        1.7804744243621826,
        1.1310423612594604
      ],
      "min": [
        -0.7593629360198975,
        0.1161295548081398
      ],
      "type": "VEC2"
    },
    {
      "bufferView": 0,
      "byteOffset": 2735616,
      "componentType": 5125,
      "count": 2304,
      "type": "SCALAR"
    },
    {
      "bufferView": 2,
      "byteOffset": 3226752,
      "componentType": 5126,
      "count": 65532,
      "max": [
        2.5686802864074707,
        5.579124450683594,
        1.1013545989990234
      ],
      "min": [
        -2.555530548095703,
        1.651379942893982,
        -4.463042259216309
      ],
      "type": "VEC3"
    },
    {
      "bufferView": 2,
      "byteOffset": 4013136,
      "componentType": 5126,
      "count": 65532,
      "max": [
        0.9999265670776367,
        0.9999997019767761,
        0.9999974966049194
      ],
      "min": [
        -0.997341513633728,
        -0.80470210313797,
        -0.8847489356994629
      ],
      "type": "VEC3"
    },
    {
      "bufferView": 1,
      "byteOffset": 1075584,
      "componentType": 5126,
      "count": 65532,
      "max": [
        4.121107578277588,
        4.125999450683594
      ],
      "min": [
        -3.126528024673462,
        -3.1263890266418457
      ],
      "type": "VEC2"
    },
    {
      "bufferView": 0,
      "byteOffset": 2744832,
      "componentType": 5125,
      "count": 354117,
      "type": "SCALAR"
    },
    {
      "bufferView": 2,
      "byteOffset": 4799520,
      "componentType": 5126,
      "count": 65532,
      "max": [
        2.527717113494873,
        5.574161052703857,
        1.0961503982543945
      ],
      "min": [
        -2.5687270164489746,
        1.5017218589782715,
        -4.622627258300781
      ],
      "type": "VEC3"
    },
    {
      "bufferView": 2,
      "byteOffset": 5585904,
      "componentType": 5126,
      "count": 65532,
      "max": [
        0.9815446734428406,
        0.9999307990074158,
        0.9999024868011475
      ],
      "min": [
        -0.9997677803039551,
        -0.999999463558197,
        -0.9999974370002747
      ],
      "type": "VEC3"
    },
    {
      "bufferView": 1,
      "byteOffset": 1599840,
      "componentType": 5126,
      "count": 65532,
      "max": [
        4.126621246337891,
        4.126515865325928
      ],
      "min": [
        -3.1266345977783203,
        -3.126552104949951
      ],
      "type": "VEC2"
    },
    {
      "bufferView": 0,
      "byteOffset": 4161300,
      "componentType": 5125,
      "count": 318567,
      "type": "SCALAR"
    },
    {
      "bufferView": 2,
      "byteOffset": 6372288,
      "componentType": 5126,
      "count": 2546,
      "max": [
        2.462932586669922,
        5.132989406585693,
        0.6471407413482666
      ],
      "min": [
        -2.3678760528564453,
        1.8592197895050049,
        -4.46832275390625
      ],
      "type": "VEC3"
    },
    {
      "bufferView": 2,
      "byteOffset": 6402840,
      "componentType": 5126,
      "count": 2546,
      "max": [
        0.8480697870254517,
        0.24986141920089722,
        0.14745384454727173
      ],
      "min": [
        -0.8558399081230164,
        -0.8166927695274353,
        -0.8980903625488281
      ],
      "type": "VEC3"
    },
    {
      "bufferView": 1,
      "byteOffset": 2124096,
      "componentType": 5126,
      "count": 2546,
      "max": [
        4.085075378417969,
        3.4692063331604004
      ],
      "min": [
        -2.588738203048706,
        -2.944223165512085
      ],
      "type": "VEC2"
    },
    {
      "bufferView": 0,
      "byteOffset": 5435568,
      "componentType": 5125,
      "count": 11220,
      "type": "SCALAR"
    },
    {
      "bufferView": 2,
      "byteOffset": 6433392,
      "componentType": 5126,
      "count": 838,
      "max": [
        2.023723602294922,
        1.8428919315338135,
        0.8394408226013184
      ],
      "min": [
        -2.023723840713501,
        -6.449222564697266e-05,
        -2.751377582550049
      ],
      "type": "VEC3"
    },
    {
      "bufferView": 2,
      "byteOffset": 6443448,
      "componentType": 5126,
      "count": 838,
      "max": [
        0.9318788051605225,
        0.864343523979187,
        0.9565007090568542
      ],
      "min": [
        -0.9318795204162598,
        -0.9729633331298828,
        -0.9484732151031494
      ],
      "type": "VEC3"
    },
    {
      "bufferView": 1,
      "byteOffset": 2144464,
      "componentType": 5126,
      "count": 838,
      "max": [
        1.7804744243621826,
        1.1310423612594604
      ],
      "min": [
        -0.7593629360198975,
        0.1161295548081398
      ],
      "type": "VEC2"
    },
    {
      "bufferView": 0,
      "byteOffset": 5480448,
      "componentType": 5125,
      "count": 2304,
      "type": "SCALAR"
    }
  ],
  "asset": {
    "extras": {
      "author": "valterjherson1 (https://sketchfab.com/valterjherson1)",
      "license": "CC-BY-4.0 (http://creativecommons.org/licenses/by/4.0/)",
      "source": "https://sketchfab.com/3d-models/modern-leather-chairarmchair-870c734448834414915eefb527522cf7",
      "title": "Modern Leather Chair/Armchair"
    },
    "generator": "Sketchfab-13.23.0",
    "version": "2.0"
  },
  "bufferViews": [
    {
      "buffer": 0,
      "byteLength": 5489664,
      "name": "floatBufferViews",
      "target": 34963
    },
    {
      "buffer": 0,
      "byteLength": 2151168,
      "byteOffset": 5489664,
      "byteStride": 8,
      "name": "floatBufferViews",
      "target": 34962
    },
    {
      "buffer": 0,
      "byteLength": 6453504,
      "byteOffset": 7640832,
      "byteStride": 12,
      "name": "floatBufferViews",
      "target": 34962
    }
  ],
  "buffers": [
    {
      "byteLength": 14094336,
      "uri": "scene.bin"
    }
  ],
  "extensionsUsed": [
    "KHR_materials_clearcoat"
  ],
  "images": [
    {
      "uri": "textures/fabric_baseColor.png"
    },
    {
      "uri": "textures/wood_baseColor.png"
    }
  ],
  "materials": [
    {
      "doubleSided": true,
      "name": "fabric",
      "pbrMetallicRoughness": {
        "baseColorFactor": [
          0.8700978898221403,
          0.8700978898221403,
          0.8700978898221403,
          1.0
        ],
        "baseColorTexture": {
          "index": 0
        },
        "metallicFactor": 0.0,
        "roughnessFactor": 0.6323828796430617
      }
    },
    {
      "doubleSided": true,
      "extensions": {
        "KHR_materials_clearcoat": {
          "clearcoatFactor": 1.0,
          "clearcoatRoughnessFactor": 0.28495324938133143
        }
      },
      "name": "wood",
      "pbrMetallicRoughness": {
        "baseColorTexture": {
          "index": 1
        },
        "metallicFactor": 0.0,
        "roughnessFactor": 0.2605722226962977
      }
    },
    {
      "doubleSided": true,
      "name": "fabric.001",
      "pbrMetallicRoughness": {
        "baseColorFactor": [
          0.01676195584596067,
          0.01676195584596067,
          0.01676195584596067,
          1.0
        ],
        "baseColorTexture": {
          "index": 0
        },
        "metallicFactor": 0.0,
        "roughnessFactor": 0.632
      }
    }
  ],
  "meshes": [
    {
      "name": "Object_0",
      "primitives": [
        {
          "attributes": {
            "NORMAL": 1,
            "POSITION": 0,
            "TEXCOORD_0": 2
          },
          "indices": 3,
          "material": 0,
          "mode": 4
        }
      ]
    },
    {
      "name": "Object_1",
      "primitives": [
        {
          "attributes": {
            "NORMAL": 5,
            "POSITION": 4,
            "TEXCOORD_0": 6
          },
          "indices": 7,
          "material": 0,
          "mode": 4
        }
      ]
    },
    {
      "name": "Object_2",
      "primitives": [
        {
          "attributes": {
            "NORMAL": 9,
            "POSITION": 8,
            "TEXCOORD_0": 10
          },
          "indices": 11,
          "material": 0,
          "mode": 4
        }
      ]
    },
    {
      "name": "Object_3",
      "primitives": [
        {
          "attributes": {
            "NORMAL": 13,
            "POSITION": 12,
            "TEXCOORD_0": 14
          },
          "indices": 15,
          "material": 1,
          "mode": 4
        }
      ]
    },
    {
      "name": "Object_4",
      "primitives": [
        {
          "attributes": {
            "NORMAL": 17,
            "POSITION": 16,
            "TEXCOORD_0": 18
          },
          "indices": 19,
          "material": 2,
          "mode": 4
        }
      ]
    },
    {
      "name": "Object_5",
      "primitives": [
        {
          "attributes": {
            "NORMAL": 21,
            "POSITION": 20,
            "TEXCOORD_0": 22
          },
          "indices": 23,
          "material": 2,
          "mode": 4
        }
      ]
    },
    {
      "name": "Object_6",
      "primitives": [
        {
          "attributes": {
            "NORMAL": 25,
            "POSITION": 24,
            "TEXCOORD_0": 26
          },
          "indices": 27,
          "material": 2,
          "mode": 4
        }
      ]
    },
    {
      "name": "Object_7",
      "primitives": [
        {
          "attributes": {
            "NORMAL": 29,
            "POSITION": 28,
            "TEXCOORD_0": 30
          },
          "indices": 31,
          "material": 1,
          "mode": 4
        }
      ]
    }
  ],
  "nodes": [
    {
      "children": [
        1
      ],
      "matrix": [
        0.2186947762966156,
        0.0,
        0.0,
        0.0,
        0.0,
        4.855999520195011e-17,
        -0.2186947762966156,
        0.0,
        0.0,
        0.2186947762966156,
        4.855999520195011e-17,
        0.0,
        0.0,
        0.0,
        0.0,
        1.0
      ],
      "name": "Sketchfab_model"
    },
    {
      "children": [
        2
      ],
      "name": "root"
    },
    {
      "children": [
        3,
        8
      ],
      "matrix": [
        1.0,
        0.0,
        0.0,
        0.0,
        0.0,
        2.220446049250313e-16,
        1.0,
        0.0,
        0.0,
        -1.0,
        2.220446049250313e-16,
        0.0,
        0.0,
        0.0,
        0.0,
        1.0
      ],
      "name": "GLTF_SceneRootNode"
    },
    {
      "children": [
        4,
        5,
        6,
        7
      ],
      "name": "Cylinder_0"
    },
    {
      "mesh": 0,
      "name": "Object_4"
    },
    {
      "mesh": 1,
      "name": "Object_5"
    },
    {
      "mesh": 2,
      "name": "Object_6"
    },
    {
      "mesh": 3,
      "name": "Object_7"
    },
    {
      "children": [
        9,
        10,
        11,
        12
      ],
      "matrix": [
        1.0,
        0.0,
        0.0,
        0.0,
        0.0,
        1.0,
        0.0,
        0.0,
        0.0,
        0.0,
        1.0,
        0.0,
        6.110249042510986,
        0.0,
        0.0,
        1.0
      ],
      "name": "Cylinder.001_3"
    },
    {
      "mesh": 4,
      "name": "Object_9"
    },
    {
      "mesh": 5,
      "name": "Object_10"
    },
    {
      "mesh": 6,
      "name": "Object_11"
    },
    {
      "mesh": 7,
      "name": "Object_12"
    }
  ],
  "samplers": [
    {
      "magFilter": 9729,
      "minFilter": 9987,
      "wrapS": 10497,
      "wrapT": 10497
    }
  ],
  "scene": 0,
  "scenes": [
    {
      "name": "Sketchfab_Scene",
      "nodes": [
        0
      ]
    }
  ],
  "textures": [
    {
      "sampler": 0,
      "source": 0
    },
    {
      "sampler": 0,
      "source": 1
    }
  ]
}
