{
  "accessors": [
    {
      "bufferView": 2,
      "componentType": 5126,
      "count": 13342,
      "max": [
        0.4368463158607483,
        1.8500958681106567,
        0.2623099982738495
      ],
      "min": [
        -0.4358956515789032,
        0.0007475377642549574,
        -0.26272737979888916
      ],
      "type": "VEC3"
    },
    {
      "bufferView": 2,
      "byteOffset": 160104,
      "componentType": 5126,
      "count": 13342,
      "max": [
        0.9999308586120605,
        0.9999954104423523,
        0.9999597072601318
      ],
      "min": [
        -0.9999679923057556,
        -0.9999300837516785,
        -0.9999558329582214
      ],
      "type": "VEC3"
    },
    {
      "bufferView": 3,
      "componentType": 5126,
      "count": 13342,
      "max": [
        0.9999936819076538,
        0.9999637007713318,
        0.9999479651451111,
        1.0
      ],
      "min": [
        -0.999950110912323,
        -0.9999971985816956,
        -0.9996406435966492,
        -1.0
      ],
      "type": "VEC4"
    },
    {
      "bufferView": 1,
      "componentType": 5126,
      "count": 13342,
      "max": [
        0.9983662962913513,
        0.9973351359367371
      ],
      "min": [
        0.000974658178165555,
        0.000974658876657486
      ],
      "type": "VEC2"
    },
    {
      "bufferView": 0,
      "componentType": 5125,
      "count": 45450,
      "type": "SCALAR"
    }
  ],
  "asset": {
    "extras": {
      "author": "David Wigforss (https://sketchfab.com/dwigfor)",
      "license": "CC-BY-NC-4.0 (http://creativecommons.org/licenses/by-nc/4.0/)",
      "source": "https://sketchfab.com/3d-models/taylor-swift-c95f9dc1ff814ebb8ca48c9c77386f92",
      "title": "Taylor Swift"
    },
    "generator": "Sketchfab-12.66.0",
    "version": "2.0"
  },
  "bufferViews": [
    {
      "buffer": 0,
      "byteLength": 181800,
      "name": "floatBufferViews",
      "target": 34963
    },
    {
      "buffer": 0,
      "byteLength": 106736,
      "byteOffset": 181800,
      "byteStride": 8,
      "name": "floatBufferViews",
      "target": 34962
    },
    {
      "buffer": 0,
      "byteLength": 320208,
      "byteOffset": 288536,
      "byteStride": 12,
      "name": "floatBufferViews",
      "target": 34962
    },
    {
      "buffer": 0,
      "byteLength": 213472,
      "byteOffset": 608744,
      "byteStride": 16,
      "name": "floatBufferViews",
      "target": 34962
    }
  ],
  "buffers": [
    {
      "byteLength": 822216,
      "uri": "scene.bin"
    }
  ],
  "images": [
    {
      "uri": "textures/MAT_TaylorSwift_baseColor.jpeg"
    },
    {
      "uri": "textures/MAT_TaylorSwift_normal.png"
    }
  ],
  "materials": [
    {
      "doubleSided": true,
      "name": "MAT_TaylorSwift",
      "normalTexture": {
        "index": 1
      },
      "pbrMetallicRoughness": {
        "baseColorTexture": {
          "index": 0
        },
        "metallicFactor": 0.0,
        "roughnessFactor": 0.6
      }
    }
  ],
  "meshes": [
    {
      "name": "geo1_MAT_TaylorSwift_0",
      "primitives": [
        {
          "attributes": {
            "NORMAL": 1,
            "POSITION": 0,
            "TANGENT": 2,
            "TEXCOORD_0": 3
          },
          "indices": 4,
          "material": 0,
          "mode": 4
        }
      ]
    }
  ],
  "nodes": [
    {
      "children": [
        1
      ],
      "matrix": [
        1.0,
        0.0,
        0.0,
        0.0,
        0.0,
        2.220446049250313e-16,
        -1.0,
        0.0,
        0.0,
        1.0,
        2.220446049250313e-16,
        0.0,
        0.0,
        0.0,
        0.0,
        1.0
      ],
      "name": "Sketchfab_model"
    },
    {
      "children": [
        2
      ],
      "matrix": [
        1.0,
        0.0,
        0.0,
        0.0,
        0.0,
        0.0,
        1.0,
        0.0,
        0.0,
        -1.0,
        0.0,
        0.0,
        0.0,
        0.0,
        0.0,
        1.0
      ],
      "name": "mesh.fbx"
    },
    {
      "children": [
        3
      ],
      "name": "RootNode"
    },
    {
      "children": [
        4
      ],
      "name": "geo1"
    },
    {
      "mesh": 0,
      "name": "geo1_MAT_TaylorSwift_0"
    }
  ],
  "samplers": [
    {
      "magFilter": 9729,
      "minFilter": 9987,
      "wrapS": 10497,
      "wrapT": 10497
    }
  ],
  "scene": 0,
  "scenes": [
    {
      "name": "Sketchfab_Scene",
      "nodes": [
        0
      ]
    }
  ],
  "textures": [
    {
      "sampler": 0,
      "source": 0
    },
    {
      "sampler": 0,
      "source": 1
    }
  ]
}
